{"title":"Rossa Venezia (2003) - Uncut 155 min","uid":6490204,"size":470249968,"categoryP":"porn","categoryS":"movies","magnet":"?xt=urn:btih:11d83e1ff25f7cd532f7e8a153683c06e1f3dbe2&amp;dn=Rossa+Venezia+%282003%29+-+Uncut+155+min&amp;tr=udp%3A%2F%2Ftracker.openbittorrent.com%3A80&amp;tr=udp%3A%2F%2Fopen.demonii.com%3A1337&amp;tr=udp%3A%2F%2Ftracker.coppersurfer.tk%3A6969&amp;tr=udp%3A%2F%2Fexodus.desync.com%3A6969","seeders":2,"leechers":2,"uploader":"Robin5555","files":3,"time":1308852927,"description":"***************************** TPB IS BENEDICTION TO ME ****************************\n*                                                                                 *\n*\t\t\t\t\t\t\t\t\t\t  *\n*\t        *                       *                       *\t          *\n*              ***                     ***                     ***                *\n*\t      *****                   *****                   *****\t\t  *\n*            *******                 *******                 *******\t\t  *\n*           *********\t\t    *********               *********             *\n*          ***********\t           ***********             *********** \t\t  *\n*         *************           *************           *************           *\n*        ***************         ***************         ***************\t  *\n*       *****************       *****************       *****************         *\n*      *******************     *******************     *******************        *\n*     *** TPB IS D BEST ***   *** TPB IS D BEST ***   *** TPB IS D BEST *** \t  *\n*      *******************     *******************     *******************\t  *\n*       *****************       *****************       *****************         *\n*        ***************         ***************         ***************          *\n*         *************           *************           *************\t \t  *\n*          ***********             ***********             ***********            *\n*           *********               *********               *********             *\n*            *******                 *******                 *******              *\n*             *****                   *****\t\t      *****               *\n*\t       ***                     ***                     ***                *\n*\t        *                       *                       *                 *\n*\t\t\t\t\t\t\t\t\t\t  *\n*\t\t\t\t\t\t\t\t\t\t  *\n***************************** TPB IS BENEDICTION TO ME ****************************\n\n\nScreen Link :---\n\n &lt;a href=&quot;\nhttp://www.shotpix.com/images/03720881778446426564.jpg&quot; rel=&quot;nofollow&quot; target=&quot;_NEW&quot;&gt;\nhttp://www.shotpix.com/images/03720881778446426564.jpg&lt;/a&gt;\n\n\n\nGeneral Info :---\n\n\nFormat                           : Matroska\nFile size                        : 448 MiB\nDuration                         : 2h 34mn\nOverall bit rate                 : 405 Kbps\n\nVideo\nID                               : 1\nFormat                           : AVC\nFormat/Info                      : Advanced Video Codec\nFormat profile                   : &lt;a class=&quot;__cf_email__&quot; href=&quot;/cdn-cgi/l/email-protection&quot; data-cfemail=&quot;551d3c323d1519617b65&quot;&gt;[email&amp;#160;protected]&lt;/a&gt;&lt;script cf-hash='f9e31' type=&quot;text/javascript&quot;&gt;\n/* &lt;![CDATA[ */!function(){try{var t=&quot;currentScript&quot;in document?document.currentScript:function(){for(var t=document.getElementsByTagName(&quot;script&quot;),e=t.length;e--;)if(t[e].getAttribute(&quot;cf-hash&quot;))return t[e]}();if(t&amp;&amp;t.previousSibling){var e,r,n,i,c=t.previousSibling,a=c.getAttribute(&quot;data-cfemail&quot;);if(a){for(e=&quot;&quot;,r=parseInt(a.substr(0,2),16),n=2;a.length-n;n+=2)i=parseInt(a.substr(n,2),16)^r,e+=String.fromCharCode(i);e=document.createTextNode(e),c.parentNode.replaceChild(e,c)}}}catch(u){}}();/* ]]&gt; */&lt;/script&gt;\nFormat settings, CABAC           : Yes\nFormat settings, ReFrames        : 3 frames\nCodec ID                         : V_MPEG4/ISO/AVC\nDuration                         : 2h 34mn\nBit rate mode                    : Variable\nBit rate                         : 274 Kbps\nMaximum bit rate                 : 25.0 Mbps\nWidth                            : 720 pixels\nHeight                           : 544 pixels\nDisplay aspect ratio             : 4:3\nFrame rate                       : 25.000 fps\nColor space                      : YUV\nChroma subsampling               : 4:2:0\nBit depth                        : 8 bits\nScan type                        : Progressive\nBits/(Pixel*Frame)               : 0.028\nStream size                      : 298 MiB (66%)\n\nAudio\nID                               : 2\nFormat                           : MPEG Audio\nFormat version                   : Version 1\nFormat profile                   : Layer 3\nCodec ID                         : A_MPEG/L3\nCodec ID/Hint                    : MP3\nDuration                         : 2h 37mn\nBit rate mode                    : Variable\nBit rate                         : 128 Kbps\nChannel(s)                       : 2 channels\nSampling rate                    : 44.1 KHz\nCompression mode                 : Lossy\nStream size                      : 144 MiB (32%)\n\n\n\n***************************** TPB IS BENEDICTION TO ME ****************************\n*                                                                                 *\n*\t\t\t\t\t\t\t\t\t\t  *\n*\t        *                       *                       *\t          *\n*              ***                     ***                     ***                *\n*\t      *****                   *****                   *****\t\t  *\n*            *******                 *******                 *******\t\t  *\n*           *********\t\t    *********               *********             *\n*          ***********\t           ***********             *********** \t\t  *\n*         *************           *************           *************           *\n*        ***************         ***************         ***************\t  *\n*       *****************       *****************       *****************         *\n*      *******************     *******************     *******************        *\n*     *** TPB IS D BEST ***   *** TPB IS D BEST ***   *** TPB IS D BEST *** \t  *\n*      *******************     *******************     *******************\t  *\n*       *****************       *****************       *****************         *\n*        ***************         ***************         ***************          *\n*         *************           *************           *************\t \t  *\n*          ***********             ***********             ***********            *\n*           *********               *********               *********             *\n*            *******                 *******                 *******              *\n*             *****                   *****\t\t      *****               *\n*\t       ***                     ***                     ***                *\n*\t        *                       *                       *                 *\n*\t\t\t\t\t\t\t\t\t\t  *\n*\t\t\t\t\t\t\t\t\t\t  *\n***************************** TPB IS BENEDICTION TO ME ****************************\n\n\n\n\n                         Seeding Time : ( 2:00 - 8:00 ) IST\n\n\n\n","torrent":{"xt":"urn:btih:11d83e1ff25f7cd532f7e8a153683c06e1f3dbe2","amp;dn":"Rossa+Venezia+%282003%29+-+Uncut+155+min","amp;tr":["udp%3A%2F%2Ftracker.openbittorrent.com%3A80","udp%3A%2F%2Fopen.demonii.com%3A1337","udp%3A%2F%2Ftracker.coppersurfer.tk%3A6969","udp%3A%2F%2Fexodus.desync.com%3A6969"],"infoHash":"11d83e1ff25f7cd532f7e8a153683c06e1f3dbe2","infoHashBuffer":{"type":"Buffer","data":[17,216,62,31,242,95,124,213,50,247,232,161,83,104,60,6,225,243,219,226]},"announce":[],"urlList":[]}}